<svg xmlns="http://www.w3.org/2000/svg" width="108.798" height="80.862" viewBox="0 0 108.798 80.862">
  <g id="Groupe_65" data-name="Groupe 65" transform="translate(-1510.863 -1204.938)">
    <path id="briefcase-solid" d="M26.692,6.963h20.89a1.164,1.164,0,0,1,1.161,1.161v5.8H25.532v-5.8A1.164,1.164,0,0,1,26.692,6.963ZM18.569,8.124v5.8H9.284A9.293,9.293,0,0,0,0,23.211V37.137H74.274V23.211a9.293,9.293,0,0,0-9.284-9.284H55.706v-5.8A8.129,8.129,0,0,0,47.582,0H26.692A8.129,8.129,0,0,0,18.569,8.124ZM74.274,41.779H46.422v4.642a4.637,4.637,0,0,1-4.642,4.642H32.5a4.637,4.637,0,0,1-4.642-4.642V41.779H0V60.348a9.293,9.293,0,0,0,9.284,9.284H64.99a9.293,9.293,0,0,0,9.284-9.284Z" transform="translate(1510.863 1216.167)" fill="#0085ff"/>
    <path id="plus-solid" d="M35.917,50.656a2.656,2.656,0,1,0-5.311,0v11.95H18.656a2.656,2.656,0,0,0,0,5.311h11.95v11.95a2.656,2.656,0,1,0,5.311,0V67.917h11.95a2.656,2.656,0,0,0,0-5.311H35.917Z" transform="translate(1569.137 1156.938)" fill="#0085ff"/>
  </g>
</svg>
